<svg id="logosandtypes_com" xmlns="http://www.w3.org/2000/svg" height="32" viewBox="0 0 150 150"><path d="M0 0h150v150H0V0z" fill="none"/><linearGradient id="a" gradientUnits="userSpaceOnUse" x1="126.5734" y1="581.9663" x2="126.5734" y2="712.7431" gradientTransform="translate(-51.2 -572.46)"><stop offset="0" stop-color="#04b0de"/><stop offset="1" stop-color="#0385b5"/></linearGradient><path d="M129.5 61.8c0-29.3-24.2-53.1-54.1-53.1S21.3 32.5 21.3 61.8c0 5.9 2.8 16.9 2.8 16.9s9.6 31.3 51.3 61.8c-.2 0 14.1-12.2 14.1-12.2s-14.2-13.4-14.1-13.4c29.8 0 54-23.8 54.1-53.1zm-32 14.5c-6.6 9.3-20.8 15.5-36.3 7.6L48.3 88l4.1-12.2c-8.6-15-2.6-29.5 7.9-36.3 10.9-7.1 25.5-5.5 34.6 3.7 8.8 9 9.9 22.9 2.6 33.1z" fill="url(#a)"/></svg>